<?xml version="1.0" encoding="UTF-8"?>
<svg id="Layer_2" data-name="Layer 2" xmlns="http://www.w3.org/2000/svg" viewBox="0 0 1241.5 691.38">
  <defs>
    <style>
      .cls-1 {
        opacity: .8;
      }

      .cls-2 {
        opacity: .7;
      }

      .cls-3 {
        opacity: .5;
      }

      .cls-4 {
        opacity: .2;
      }

      .cls-5 {
        opacity: .3;
      }

      .cls-6 {
        opacity: .1;
      }

      .cls-7 {
        fill: #b7b574;
      }
    </style>
  </defs>
  <g id="Layer_2-2" data-name="Layer 2">
    <g>
      <g class="cls-5">
        <circle class="cls-7" cx="316.93" cy="281.84" r=".82"/>
      </g>
      <g class="cls-4">
        <circle class="cls-7" cx="1034.72" cy="232.87" r=".82"/>
      </g>
      <g class="cls-3">
        <circle class="cls-7" cx="456.06" cy="446.18" r=".82"/>
      </g>
      <g class="cls-5">
        <circle class="cls-7" cx="602.36" cy="635.8" r=".82"/>
      </g>
      <g class="cls-6">
        <circle class="cls-7" cx="974.24" cy="138.06" r=".82"/>
      </g>
      <g class="cls-3">
        <circle class="cls-7" cx="44.95" cy="399.6" r=".82"/>
      </g>
      <g class="cls-5">
        <circle class="cls-7" cx="724.14" cy="539.5" r=".82"/>
      </g>
      <g class="cls-5">
        <circle class="cls-7" cx="197.79" cy="606.52" r=".82"/>
      </g>
      <g class="cls-5">
        <circle class="cls-7" cx="261.54" cy="370.17" r=".82"/>
      </g>
      <g class="cls-5">
        <circle class="cls-7" cx="650.58" cy="38.35" r=".82"/>
      </g>
      <g class="cls-4">
        <circle class="cls-7" cx="113.61" cy="88.2" r=".82"/>
      </g>
      <g class="cls-1">
        <circle class="cls-7" cx="575.21" cy="194.45" r=".82"/>
      </g>
      <g class="cls-3">
        <circle class="cls-7" cx="1240.68" cy="291.78" r=".82"/>
      </g>
      <g class="cls-3">
        <circle class="cls-7" cx="371.06" cy="127.43" r=".82"/>
      </g>
      <g class="cls-5">
        <circle class="cls-7" cx="913.76" cy="577.77" r=".82"/>
      </g>
      <g class="cls-6">
        <circle class="cls-7" cx="1232.51" cy="50.67" r=".82"/>
      </g>
      <g class="cls-6">
        <circle class="cls-7" cx="129.13" cy="348.99" r=".82"/>
      </g>
      <g class="cls-5">
        <circle class="cls-7" cx="1118.08" cy="518.32" r=".82"/>
      </g>
      <g class="cls-3">
        <circle class="cls-7" cx="573.57" cy="541.13" r=".82"/>
      </g>
      <g class="cls-6">
        <circle class="cls-7" cx="914.57" cy="103.73" r=".82"/>
      </g>
      <g class="cls-3">
        <circle class="cls-7" cx="1041.26" cy="28.54" r=".82"/>
      </g>
      <g class="cls-3">
        <circle class="cls-7" cx="371.88" cy=".82" r=".82"/>
      </g>
      <g class="cls-3">
        <circle class="cls-7" cx="181.44" cy="260.65" r=".82"/>
      </g>
      <g class="cls-4">
        <circle class="cls-7" cx="948.42" cy="395.51" r=".82"/>
      </g>
      <g class="cls-5">
        <circle class="cls-7" cx="349.81" cy="538.68" r=".82"/>
      </g>
      <g class="cls-5">
        <circle class="cls-7" cx="583.56" cy="690.56" r=".82"/>
      </g>
      <g class="cls-6">
        <circle class="cls-7" cx="906.4" cy="155.22" r=".82"/>
      </g>
      <g class="cls-2">
        <circle class="cls-7" cx="24.67" cy="458.52" r=".82"/>
      </g>
      <g class="cls-3">
        <circle class="cls-7" cx="615.68" cy="467.43" r=".82"/>
      </g>
      <g class="cls-5">
        <circle class="cls-7" cx="163.8" cy="622.87" r=".82"/>
      </g>
      <g class="cls-3">
        <circle class="cls-7" cx="282.13" cy="453.54" r=".82"/>
      </g>
      <g class="cls-5">
        <circle class="cls-7" cx="616.59" cy="74.69" r=".82"/>
      </g>
      <g class="cls-4">
        <circle class="cls-7" cx=".82" cy="174.02" r=".82"/>
      </g>
      <g class="cls-6">
        <circle class="cls-7" cx="518.99" cy="142.96" r=".82"/>
      </g>
      <g class="cls-3">
        <circle class="cls-7" cx="1174.48" cy="397.15" r=".82"/>
      </g>
      <g class="cls-3">
        <circle class="cls-7" cx="276.25" cy="133.15" r=".82"/>
      </g>
      <g class="cls-5">
        <circle class="cls-7" cx="826.64" cy="564.76" r=".82"/>
      </g>
      <g class="cls-3">
        <circle class="cls-7" cx="1188.37" cy="156.04" r=".82"/>
      </g>
      <g class="cls-6">
        <circle class="cls-7" cx="120.96" cy="398.78" r=".82"/>
      </g>
      <g class="cls-5">
        <circle class="cls-7" cx="1118.9" cy="615.37" r=".82"/>
      </g>
      <g class="cls-5">
        <circle class="cls-7" cx="456.88" cy="604.89" r=".82"/>
      </g>
      <g class="cls-3">
        <circle class="cls-7" cx="836.45" cy="76.76" r=".82"/>
      </g>
      <g class="cls-4">
        <circle class="cls-7" cx="854.43" cy="275.37" r=".82"/>
      </g>
      <g class="cls-3">
        <circle class="cls-7" cx="337.07" cy="73.06" r=".82"/>
      </g>
    </g>
  </g>
</svg>